<svg width="13" height="13" viewBox="0 0 13 13" fill="none" xmlns="http://www.w3.org/2000/svg">
<g id="Frame">
<path id="Vector" d="M11.365 3.73555C11.2897 3.66018 11.2002 3.60039 11.1018 3.55959C11.0034 3.5188 10.8979 3.4978 10.7913 3.4978C10.6848 3.4978 10.5793 3.5188 10.4809 3.55959C10.3824 3.60039 10.293 3.66018 10.2177 3.73555L6.59938 7.35389C6.57909 7.37406 6.55163 7.38539 6.52301 7.38539C6.49439 7.38539 6.46693 7.37406 6.44663 7.35389L2.8283 3.73555C2.753 3.66018 2.66357 3.60039 2.56515 3.55959C2.46672 3.5188 2.36122 3.4978 2.25468 3.4978C2.14813 3.4978 2.04263 3.5188 1.9442 3.55959C1.84578 3.60039 1.75636 3.66018 1.68105 3.73555L1.67997 3.73664C1.52788 3.88879 1.44244 4.09512 1.44244 4.31026C1.44244 4.5254 1.52788 4.73173 1.67997 4.88389L6.14005 9.34397C6.24177 9.44525 6.37947 9.50211 6.52301 9.50211C6.66655 9.50211 6.80425 9.44525 6.90597 9.34397L11.3661 4.88389C11.5181 4.73173 11.6036 4.5254 11.6036 4.31026C11.6036 4.09512 11.5181 3.88879 11.3661 3.73664L11.365 3.73555Z" fill="black"/>
</g>
</svg>
