<svg width="16" height="16" viewBox="0 0 16 16" fill="none" xmlns="http://www.w3.org/2000/svg">
<g id="Frame" clip-path="url(#clip0_1_63)">
<path id="Vector" d="M16.5 2.657C15.8642 2.94245 15.1889 3.13023 14.497 3.214C15.2278 2.76896 15.7725 2.07401 16.03 1.258C15.356 1.663 14.61 1.958 13.816 2.116C13.4917 1.76424 13.098 1.48348 12.6599 1.2914C12.2217 1.09933 11.7484 1.00011 11.27 1C9.344 1 7.782 2.582 7.782 4.534C7.782 4.811 7.813 5.081 7.872 5.34C4.974 5.192 2.404 3.785 0.683 1.647C0.372607 2.18771 0.209833 2.80053 0.211 3.424C0.211 4.65 0.827 5.732 1.763 6.365C1.20833 6.34765 0.666157 6.19598 0.183 5.923V5.968C0.183 7.68 1.385 9.109 2.98 9.433C2.46685 9.57532 1.92762 9.5962 1.405 9.494C1.849 10.898 3.137 11.92 4.664 11.948C3.94353 12.5226 3.11585 12.948 2.22924 13.1994C1.34263 13.4507 0.414842 13.523 -0.5 13.412C1.09006 14.4491 2.94763 15.0008 4.846 15C11.262 15 14.77 9.614 14.77 4.944C14.77 4.791 14.766 4.638 14.76 4.487C15.4438 3.98485 16.0329 3.36523 16.5 2.657Z" fill="black"/>
</g>
<defs>
<clipPath id="clip0_1_63">
<rect width="16" height="16" fill="white"/>
</clipPath>
</defs>
</svg>
