<svg width="16" height="16" viewBox="0 0 16 16" fill="none" xmlns="http://www.w3.org/2000/svg">
<g id="Frame" clip-path="url(#clip0_1_59)">
<path id="Vector" d="M15.0969 9.87292V15.5422H12.0542V10.2525C12.0542 8.92358 11.6142 8.01692 10.5138 8.01692C9.67292 8.01692 9.17247 8.62847 8.95292 9.21958C8.87203 9.43114 8.85158 9.72536 8.85158 10.0205V15.5422H5.80892C5.80892 15.5422 5.8498 6.58314 5.80892 5.65514H8.85158V7.05692L8.83114 7.08892H8.85158V7.05692C9.25603 6.38403 9.9778 5.42314 11.5938 5.42314C13.5956 5.42314 15.0969 6.83558 15.0969 9.87292ZM2.6258 0.888916C1.58403 0.888916 0.903137 1.62669 0.903137 2.59647C0.903137 3.5458 1.56447 4.31647 2.58492 4.31647H2.60536C3.66669 4.31647 4.32625 3.5458 4.32625 2.59647C4.30669 1.62669 3.66669 0.888916 2.6258 0.888916ZM1.08447 15.5422H4.12625V5.65514H1.08447V15.5422Z" fill="black"/>
</g>
<defs>
<clipPath id="clip0_1_59">
<rect width="16" height="16" fill="white"/>
</clipPath>
</defs>
</svg>
